<svg width="22" height="21" viewBox="0 0 22 21" fill="none" xmlns="http://www.w3.org/2000/svg">
<path d="M19.3753 19.7002L19.8438 19.1146H19.8438L19.3753 19.7002ZM16.5478 17.4383L17.0163 16.8526L16.5478 17.4383ZM20.25 6C20.25 3.65279 18.3472 1.75 16 1.75V0.25C19.1756 0.25 21.75 2.82436 21.75 6H20.25ZM20.25 11.5V6H21.75V11.5H20.25ZM20.25 12V11.5H21.75V12H20.25ZM20.25 18.9194V12H21.75V18.9194H20.25ZM19.8438 19.1146C20.0075 19.2455 20.25 19.129 20.25 18.9194H21.75C21.75 20.3868 20.0526 21.2026 18.9068 20.2859L19.8438 19.1146ZM17.0163 16.8526L19.8438 19.1146L18.9068 20.2859L16.0793 18.0239L17.0163 16.8526ZM6 16.25H15.2984V17.75H6V16.25ZM1.75 12C1.75 14.3472 3.65279 16.25 6 16.25V17.75C2.82436 17.75 0.25 15.1756 0.25 12H1.75ZM1.75 6V12H0.25V6H1.75ZM6 1.75C3.65279 1.75 1.75 3.65279 1.75 6H0.25C0.25 2.82436 2.82436 0.25 6 0.25V1.75ZM16 1.75H6V0.25H16V1.75ZM16.0793 18.0239C15.8577 17.8466 15.5823 17.75 15.2984 17.75V16.25C15.9229 16.25 16.5287 16.4625 17.0163 16.8526L16.0793 18.0239Z" fill="#230035"/>
<circle cx="1.25" cy="1.25" r="1.25" transform="matrix(-1 0 0 1 17.2 7.7998)" fill="#230035"/>
<circle cx="1.25" cy="1.25" r="1.25" transform="matrix(-1 0 0 1 12.2 7.7998)" fill="#230035"/>
<circle cx="1.25" cy="1.25" r="1.25" transform="matrix(-1 0 0 1 7.19995 7.7998)" fill="#230035"/>
</svg>
