<?xml version="1.0" encoding="utf-8"?>
<!-- Generator: Adobe Illustrator 24.1.2, SVG Export Plug-In . SVG Version: 6.00 Build 0)  -->
<svg version="1.1" xmlns="http://www.w3.org/2000/svg" xmlns:xlink="http://www.w3.org/1999/xlink" x="0px" y="0px"
	 viewBox="0 0 24 48" style="enable-background:new 0 0 24 48;" xml:space="preserve">
<style type="text/css">
	.st0{fill:none;stroke:#230035;stroke-width:1.5;}
	.st1{fill:#230035;}
	.st2{fill:none;stroke:#230035;stroke-width:1.5;stroke-linecap:round;stroke-linejoin:round;}
	.st3{fill:none;stroke:#230035;stroke-width:1.5;stroke-linecap:round;}
</style>
<g id="Слой_3">
	<path class="st0" d="M3.2,36.8c-0.3-0.5-0.3-1.1,0-1.6c1.7-3.1,5-5.2,8.8-5.2c3.8,0,7.1,2.1,8.8,5.2c0.3,0.5,0.3,1.1,0,1.6
		c-1.7,3.1-5,5.2-8.8,5.2C8.2,42,4.9,39.9,3.2,36.8z"/>
	<circle class="st0" cx="12" cy="36" r="3"/>
</g>
<g id="Слой_1">
	<path class="st1" d="M20.8,11.2l0.7-0.4L20.8,11.2z M20.8,12.8l0.7,0.4L20.8,12.8z M3.2,11.2l0.7,0.4L3.2,11.2z M3.2,12.8l-0.7,0.4
		l0,0L3.2,12.8z M19.5,8.3c-0.3-0.3-0.8-0.3-1.1,0s-0.3,0.8,0,1.1L19.5,8.3z M9.7,17c-0.4-0.1-0.8,0.1-0.9,0.5
		c-0.1,0.4,0.1,0.8,0.5,0.9L9.7,17z M14.6,6.3l-0.2,0.7L14.6,6.3z M7.1,16.7l-0.4,0.7l0.8-1.3L7.1,16.7z M3.9,11.6
		C5.4,8.7,8.5,6.7,12,6.7V5.2c-4.1,0-7.6,2.3-9.5,5.6L3.9,11.6z M20.1,12.4c-1.6,2.9-4.6,4.8-8.1,4.8v1.5c4.1,0,7.6-2.3,9.5-5.6
		L20.1,12.4z M20.1,11.6c0.1,0.3,0.1,0.6,0,0.8l1.3,0.7c0.4-0.7,0.4-1.6,0-2.3L20.1,11.6z M2.5,10.9c-0.4,0.7-0.4,1.6,0,2.3l1.3-0.7
		c-0.1-0.3-0.1-0.6,0-0.8L2.5,10.9z M18.5,9.4c0.7,0.6,1.2,1.4,1.7,2.2l1.3-0.7c-0.5-0.9-1.2-1.8-1.9-2.5L18.5,9.4z M12,17.2
		c-0.8,0-1.6-0.1-2.3-0.3l-0.4,1.5c0.9,0.2,1.8,0.3,2.7,0.3V17.2z M12,6.7c0.8,0,1.6,0.1,2.4,0.3l0.4-1.4C13.9,5.4,13,5.2,12,5.2
		V6.7z M5.9,15c-0.8-0.7-1.5-1.6-2.1-2.6l-1.3,0.7c0.6,1.1,1.4,2.1,2.4,3L5.9,15z M7.4,16.1c-0.5-0.3-1-0.7-1.5-1.1l-1,1.1
		c0.5,0.5,1.1,0.9,1.8,1.2L7.4,16.1z M5,16.2l1.6,1.2l0.9-1.2l-1.6-1.2L5,16.2z M14.4,7.1c0.7,0.2,1.4,0.5,2,0.8l0.7-1.3
		c-0.7-0.4-1.5-0.7-2.4-0.9L14.4,7.1z"/>
	<path class="st2" d="M19.5,4.5l-15,15"/>
	<path class="st3" d="M9,12c0-1.7,1.3-3,3-3"/>
</g>
</svg>
