<svg width="24" height="24" viewBox="0 0 24 24" fill="none" xmlns="http://www.w3.org/2000/svg">
<path d="M4.00005 14.8851H3.25005H4.00005ZM6.73297 18.0834L6.83598 17.3405H6.83598L6.73297 18.0834ZM16.9193 18.0834L16.8163 17.3405H16.8163L16.9193 18.0834ZM4.46652 13.1872L3.82237 12.8031L4.46652 13.1872ZM6.48919 8.08696C6.48919 5.13944 8.87863 2.75 11.8261 2.75V1.25C8.0502 1.25 4.98919 4.31101 4.98919 8.08696H6.48919ZM6.48919 10.1795V8.08696H4.98919V10.1795H6.48919ZM4.75005 14.8851C4.75005 14.4037 4.88176 13.9552 5.11067 13.5714L3.82237 12.8031C3.45875 13.4128 3.25005 14.1257 3.25005 14.8851H4.75005ZM6.83598 17.3405C5.63634 17.1742 4.75005 16.1313 4.75005 14.8851H3.25005C3.25005 16.8448 4.65417 18.5524 6.62995 18.8263L6.83598 17.3405ZM11.8261 17.772C10.3342 17.772 8.40657 17.5583 6.83598 17.3405L6.62995 18.8263C8.21273 19.0458 10.2254 19.272 11.8261 19.272V17.772ZM16.8163 17.3405C15.2457 17.5583 13.3181 17.772 11.8261 17.772V19.272C13.4269 19.272 15.4396 19.0458 17.0223 18.8263L16.8163 17.3405ZM18.9022 14.8851C18.9022 16.1313 18.0159 17.1742 16.8163 17.3405L17.0223 18.8263C18.9981 18.5524 20.4022 16.8448 20.4022 14.8851H18.9022ZM18.5416 13.5714C18.7705 13.9552 18.9022 14.4037 18.9022 14.8851H20.4022C20.4022 14.1257 20.1935 13.4128 19.8299 12.8031L18.5416 13.5714ZM17.1631 8.08696V10.1795H18.6631V8.08696H17.1631ZM11.8261 2.75C14.7737 2.75 17.1631 5.13944 17.1631 8.08696H18.6631C18.6631 4.31101 15.6021 1.25 11.8261 1.25V2.75ZM19.8299 12.8031C19.521 12.2851 19.2405 11.8701 19.0091 11.4066C18.7876 10.9629 18.6631 10.567 18.6631 10.1795H17.1631C17.1631 10.8924 17.3931 11.5278 17.667 12.0766C17.9311 12.6056 18.2869 13.1443 18.5416 13.5714L19.8299 12.8031ZM4.98919 10.1795C4.98919 10.567 4.86467 10.9629 4.64316 11.4066C4.41182 11.8701 4.13126 12.2851 3.82237 12.8031L5.11067 13.5714C5.36537 13.1443 5.72115 12.6056 5.98525 12.0766C6.25917 11.5278 6.48919 10.8923 6.48919 10.1795H4.98919Z" fill="#230035"/>
<path d="M14 20.834C13.5326 21.5369 12.7335 22.0002 11.8261 22.0002C10.9187 22.0002 10.1195 21.5369 9.65218 20.834" stroke="#230035" stroke-width="1.5" stroke-linecap="round"/>
</svg>
