<svg width="24" height="24" viewBox="0 0 24 24" fill="none" xmlns="http://www.w3.org/2000/svg">
<path d="M3 19L3 12C3 7.02944 7.02944 3 12 3V3C16.9706 3 21 7.02944 21 12L21 19" stroke="#AA9DAF" stroke-width="1.5" stroke-linecap="round"/>
<path d="M8 15C8 13.8954 7.10457 13 6 13L5 13C3.89543 13 3 13.8954 3 15L3 19C3 20.1046 3.89543 21 5 21L6 21C7.10457 21 8 20.1046 8 19L8 15Z" stroke="#AA9DAF" stroke-width="1.5"/>
<path d="M16 15C16 13.8954 16.8954 13 18 13L19 13C20.1046 13 21 13.8954 21 15L21 19C21 20.1046 20.1046 21 19 21L18 21C16.8954 21 16 20.1046 16 19L16 15Z" stroke="#AA9DAF" stroke-width="1.5"/>
</svg>
