<svg width="19" height="18" viewBox="0 0 19 18" fill="none" xmlns="http://www.w3.org/2000/svg">
<path fill-rule="evenodd" clip-rule="evenodd" d="M10.5137 0.806009C11.5869 -0.268746 13.3274 -0.269404 14.4013 0.804537L16.8932 3.29639C17.958 4.36117 17.969 6.08493 16.918 7.1633L7.68486 16.6366C6.97933 17.3604 6.01167 17.7686 5.00124 17.7686L2.24909 17.7684C0.969844 17.7684 -0.0517699 16.702 0.00203171 15.4229L0.120186 12.6139C0.159684 11.6749 0.549963 10.7849 1.2138 10.12L10.5137 0.806009ZM13.3415 1.866C12.8533 1.37784 12.0622 1.37814 11.5744 1.86667L9.9113 3.53227L14.1911 7.81206L15.8446 6.11554C16.3224 5.62537 16.3173 4.84184 15.8333 4.35785L13.3415 1.866ZM2.27446 11.1807L8.85145 4.59374L13.144 8.88634L6.61148 15.5888C6.18816 16.0231 5.60756 16.268 5.0013 16.268L2.24916 16.2679C1.82274 16.2679 1.4822 15.9124 1.50014 15.486L1.61829 12.677C1.64199 12.1136 1.87616 11.5796 2.27446 11.1807ZM17.5148 17.6953C17.9289 17.6953 18.2645 17.3594 18.2645 16.945C18.2645 16.5306 17.9289 16.1947 17.5148 16.1947H11.3931C10.9791 16.1947 10.6434 16.5306 10.6434 16.945C10.6434 17.3594 10.9791 17.6953 11.3931 17.6953H17.5148Z" fill="#8C50A6"/>
</svg>
