<svg width="151" height="41" viewBox="0 0 151 41" fill="none" xmlns="http://www.w3.org/2000/svg">
<path d="M44.0134 21.6712C44.5911 21.0866 45.1139 20.4423 45.572 19.7485C46.0259 19.0611 46.4162 18.325 46.7336 17.5495C47.0467 16.7844 47.2881 15.9884 47.4487 15.1711C47.6064 14.3689 47.6892 13.5432 47.6892 12.7027C47.6892 10.9878 47.35 9.34786 46.7357 7.84821C46.0966 6.28818 45.1639 4.88802 44.0094 3.72064C42.855 2.55353 41.4702 1.61036 39.9271 0.964176C38.4437 0.342972 36.8215 0 35.1255 0C34.687 0 34.24 0.0251049 33.787 0.0741196C33.3315 0.123265 32.8891 0.195535 32.4614 0.28894C32.047 0.379438 31.6206 0.498875 31.1851 0.645516C30.7466 0.792963 30.3299 0.957843 29.9364 1.13858L29.9369 1.1399L29.8287 1.18904C29.0235 1.5624 28.3178 1.96139 27.0761 2.28244C26.2039 2.50796 25.1946 2.66834 23.8705 2.70455C23.5451 2.70455 22.6788 2.65646 21.8506 2.54098C20.9417 2.41442 20.0925 2.15891 19.2414 1.81659C18.7151 1.60481 18.2451 1.37705 17.7437 1.14545C17.6257 1.086 17.5002 1.03262 17.38 0.977387L17.3766 0.97396C17.3084 0.942912 17.2429 0.913975 17.1892 0.892308L17.1858 0.888738C16.8504 0.754514 16.4781 0.627288 16.0699 0.508386C15.6819 0.395426 15.2955 0.301359 14.9127 0.227902C14.5314 0.154837 14.1392 0.0982912 13.7383 0.0597128C13.3283 0.0202094 12.9359 0 12.5638 0C10.8677 0 9.24555 0.342973 7.7623 0.964047C6.21907 1.61049 4.83434 2.55353 3.67999 3.72064C2.52563 4.88776 1.59289 6.28779 0.953511 7.84808C0.339224 9.34773 0 10.9878 0 12.7027C0 13.5127 0.0781438 14.3125 0.226971 15.0942C0.37764 15.8843 0.604224 16.6569 0.899017 17.4032C1.1997 18.1647 1.56597 18.884 1.98961 19.5525C2.41991 20.2316 2.91359 20.8669 3.46136 21.4497L16.6364 34.7092C17.7011 35.6935 19.1235 35.5167 19.9246 34.7105L21.6555 33.0178C27.2705 27.3477 32.8959 21.688 38.5037 16.0107L38.5353 15.9676C38.7237 15.7656 38.9001 15.5407 39.0599 15.2956C39.2275 15.0389 39.3703 14.7712 39.4833 14.4963C39.5963 14.2217 39.6865 13.9262 39.7495 13.6126C39.8108 13.3064 39.8434 13.0016 39.8434 12.7027C39.8434 12.0623 39.7155 11.4469 39.484 10.8817C39.2425 10.2922 38.8926 9.7656 38.4615 9.32976C38.0304 8.8939 37.5096 8.5401 36.9266 8.29594C36.3676 8.06197 35.7589 7.93263 35.1255 7.93263C34.2375 7.93263 33.52 8.15578 32.8077 8.52649C32.0444 8.94582 30.9233 9.36821 29.9951 9.66507C28.0235 10.2957 26.0568 10.6174 23.871 10.6174C22.8113 10.6174 20.9097 10.4879 19.0754 10.0471C17.4357 9.65304 15.7605 8.92693 14.8198 8.50047C14.3904 8.13609 13.3434 7.93263 12.5638 7.93263C11.9297 7.93263 11.321 8.0625 10.7633 8.2974C10.188 8.53983 9.66777 8.89642 9.2304 9.33901C8.79605 9.77868 8.44624 10.3025 8.20815 10.8828C7.97674 11.4469 7.84881 12.0619 7.84881 12.7027C7.84881 13.0026 7.87874 13.3047 7.93609 13.6042C7.99229 13.8974 8.07853 14.1904 8.19208 14.478C8.30826 14.772 8.44976 15.0488 8.61376 15.3028V15.3063C8.77749 15.5597 8.96932 15.7991 9.18702 16.0198L13.1588 20.0212L15.6815 22.5627C16.2504 23.1359 15.9631 22.8151 16.5552 23.4133C16.8938 23.8185 17.4855 24.1213 18.1817 24.1166C18.6997 24.113 19.3014 23.9535 19.7622 23.4606C20.11 23.2064 20.409 22.5598 20.4308 21.8724C20.4487 21.3082 20.2862 20.7211 19.7649 20.2576L18.4021 18.8816C17.0016 17.4591 14.8731 15.3034 13.4725 13.881C13.3202 13.7262 12.5884 12.9886 12.4359 12.8337C12.368 12.7668 12.3472 12.6336 12.4107 12.5521C12.457 12.4929 12.5638 12.4506 12.7025 12.5013C12.954 12.6284 13.4229 12.8514 13.8298 13.0375C15.127 13.6305 16.3846 14.0234 17.7594 14.4047C18.3567 14.5679 19.4846 14.7786 20.1727 14.8918C20.28 14.9157 21.1116 15.032 21.9552 15.0933C22.8273 15.1569 23.713 15.1657 23.8551 15.1657C27.818 15.1657 31.4996 14.2532 35.0244 12.4927C35.1318 12.4542 35.2289 12.4855 35.2855 12.5451C35.3487 12.6119 35.3617 12.7147 35.2819 12.7958C35.2377 12.8496 35.1781 12.8823 35.0256 13.0523L18.3069 29.9097C14.4527 26.0193 10.597 22.1899 6.74421 18.2924C6.39337 17.9191 6.07662 17.5118 5.79985 17.0765C5.52361 16.642 5.28997 16.1867 5.10441 15.7169C4.9216 15.2541 4.77956 14.7635 4.68326 14.2507C4.59087 13.7588 4.54253 13.2414 4.54253 12.7027C4.54253 11.5984 4.75787 10.55 5.14779 9.59794C5.55184 8.61157 6.14862 7.71926 6.89175 6.96792C7.63488 6.21657 8.51744 5.6132 9.49303 5.2047C10.4347 4.81047 11.4718 4.59274 12.5638 4.59274C12.8514 4.59274 13.1091 4.6037 13.337 4.62472C13.5816 4.64731 13.8294 4.68311 14.0788 4.73107C14.3258 4.77836 14.5662 4.83689 14.7992 4.90572C15.0206 4.97099 15.2608 5.05593 15.5178 5.15873L15.6583 5.21474L15.8502 5.30154L15.8493 5.30365C15.9784 5.36443 16.1085 5.42388 16.2398 5.48202L16.5011 5.60303L16.5055 5.59709C16.9111 5.7691 17.3272 5.92857 17.7531 6.07456C18.1314 6.25991 18.5901 6.424 19.0902 6.56629C19.6983 6.73936 20.3696 6.90899 21.0292 7.01707C22.0967 7.19212 23.1373 7.25289 23.855 7.25289C25.4018 7.25289 26.9545 6.97228 27.9058 6.76314C28.552 6.59205 29.2187 6.42016 29.8385 6.16082C30.3494 5.98815 31.3334 5.5095 31.8482 5.25094C32.7548 4.83319 33.8873 4.53884 35.1465 4.53884C37.2038 4.53884 39.3833 5.44991 40.831 6.91362C41.9861 8.08152 42.7844 9.56995 43.0917 11.3437C43.2679 12.3606 43.2323 13.5692 42.9594 14.6643C42.7226 15.6144 42.3061 16.5056 41.8164 17.2457C41.5234 17.6885 41.1769 18.0621 40.8025 18.4411C33.8216 25.4929 28.8422 30.4862 22.1649 37.2314C21.0534 38.2984 21.7654 40.0203 22.174 40.2879C23.254 41.4434 24.8539 41.0099 25.5115 40.275L44.0134 21.6712Z" fill="white"/>
<path fill-rule="evenodd" clip-rule="evenodd" d="M80.391 10.0791H78.1681H70.3936V10.0713L68.1518 10.0791C66.9235 10.0791 65.9279 11.0858 65.9279 12.3275V12.3584V12.3587V23.6886C65.9279 25.0422 64.9737 26.1554 63.7192 26.4187L63.7093 26.4208L63.7094 26.4448C62.9042 26.7829 62.3379 27.5856 62.3379 28.522L62.338 28.5285V30.5498L62.3379 30.5563L62.338 30.5628V30.5931C62.3574 31.8179 63.3453 32.8048 64.5614 32.8048C65.6686 32.8048 66.5867 31.9866 66.7568 30.9155H78.1676H80.433C80.6031 31.9866 81.5212 32.8048 82.6285 32.8048C83.8567 32.8048 84.8523 31.7981 84.8523 30.5563V28.6671V28.522H84.8476C84.7735 27.3479 83.8085 26.4187 82.6285 26.4187L82.6154 26.4189V26.4187V14.576V12.3275C82.6154 11.0857 81.6197 10.0791 80.3916 10.0791H80.3905L80.391 10.0791ZM94.5757 28.6668V28.6668C94.5757 29.9086 93.5801 30.9152 92.3519 30.9152C91.1236 30.9152 90.128 29.9086 90.128 28.6668L90.1281 28.6644V12.3391V12.339V12.3277C90.1281 11.0859 91.1237 10.0793 92.3519 10.0793V10.0792H93.2473H94.5758H101.53C105.611 10.0792 108.95 13.2987 108.95 17.4256C108.95 21.5524 105.611 24.5988 101.53 24.5988H94.5758V28.6668H94.5757ZM94.5757 14.5759C94.5757 16.418 94.5757 18.26 94.5757 20.102H101.656C103.21 20.102 104.48 18.9428 104.48 17.3721C104.48 15.8015 103.208 14.5761 101.656 14.5761L94.5757 14.576V14.5759ZM127.89 10.8743L127.889 10.8756C127.805 10.9761 127.729 11.0842 127.663 11.1986L122.253 18.9425L116.772 11.0895V11.0896C116.374 10.4808 115.691 10.0793 114.915 10.0793C113.687 10.0793 112.691 11.0859 112.691 12.3277C112.691 12.8534 112.87 13.3369 113.169 13.7198L113.169 13.7198L119.532 22.8443L116.321 27.4491L116.325 27.4518C116.102 27.8022 115.972 28.2193 115.972 28.6668C115.972 29.9087 116.968 30.9153 118.196 30.9153C118.906 30.9153 119.538 30.5789 119.946 30.055C119.993 29.9942 120.037 29.9309 120.078 29.8653L131.452 13.5558L131.451 13.5546C131.678 13.2018 131.811 12.7804 131.811 12.3277C131.811 11.0859 130.815 10.0793 129.587 10.0793C128.907 10.0793 128.298 10.388 127.89 10.8744V10.8743H127.89ZM148.804 10.0791H140.77H138.546H138.531L138.531 10.0793C137.309 10.0876 136.322 11.0908 136.322 12.3274L136.322 12.3275L136.322 12.3339L136.322 14.576L136.319 28.7821H136.325C136.384 29.9705 137.356 30.9155 138.546 30.9155C139.774 30.9155 140.77 29.9089 140.77 28.667C140.77 28.6286 140.769 28.5905 140.767 28.5526L140.77 14.576H148.764L148.776 14.5761L148.789 14.576H148.804V14.5759C150.019 14.561 151 13.5603 151 12.3277C151 11.0952 150.019 10.0946 148.804 10.0797V10.0791L148.804 10.0791ZM69.8893 26.4187C70.2171 25.6012 70.3977 24.7008 70.3977 23.7422L70.3967 23.6886H70.3933V14.576H78.1678V26.4187H69.889H69.8893Z" fill="white"/>
</svg>
