<svg width="97" height="26" viewBox="0 0 97 26" fill="none" xmlns="http://www.w3.org/2000/svg">
<path d="M28.2735 13.7427C28.6446 13.372 28.9805 12.9634 29.2747 12.5235C29.5663 12.0876 29.817 11.6207 30.0209 11.1289C30.2221 10.6438 30.3771 10.139 30.4803 9.62071C30.5816 9.11199 30.6348 8.58837 30.6348 8.05535C30.6348 6.96788 30.4169 5.92791 30.0223 4.97691C29.6117 3.98763 29.0126 3.09972 28.2709 2.35943C27.5294 1.61931 26.6398 1.0212 25.6485 0.611429C24.6956 0.217494 23.6535 0 22.5641 0C22.2824 0 21.9952 0.0159202 21.7043 0.0470027C21.4116 0.078168 21.1274 0.123998 20.8527 0.18323C20.5865 0.240619 20.3126 0.31636 20.0328 0.409352C19.7511 0.502855 19.4834 0.607412 19.2307 0.722026L19.231 0.722862L19.1615 0.754027C18.6443 0.990789 18.1909 1.24381 17.3933 1.4474C16.833 1.59041 16.1846 1.69212 15.334 1.71508C15.125 1.71508 14.5685 1.68458 14.0365 1.61136C13.4526 1.5311 12.9071 1.36907 12.3604 1.15199C12.0223 1.01768 11.7203 0.87325 11.3983 0.726381C11.3225 0.68868 11.2419 0.65483 11.1647 0.619807L11.1625 0.617633C11.1187 0.597944 11.0766 0.579594 11.0421 0.565854L11.0399 0.56359C10.8244 0.478472 10.5853 0.397792 10.3231 0.322391C10.0738 0.250758 9.82561 0.191105 9.57967 0.144523C9.33472 0.0981892 9.08282 0.062331 8.82528 0.0378667C8.56188 0.0128157 8.3098 0 8.07081 0C6.98125 0 5.9392 0.217495 4.98638 0.611347C3.99503 1.02129 3.10551 1.61931 2.36396 2.35943C1.62242 3.09955 1.02325 3.98738 0.61252 4.97683C0.217912 5.92783 0 6.96788 0 8.05535C0 8.56902 0.0501983 9.07622 0.145803 9.57195C0.24259 10.073 0.388144 10.5629 0.577514 11.0362C0.770666 11.5191 1.00595 11.9752 1.27809 12.3991C1.55451 12.8298 1.87164 13.2327 2.22353 13.6022L10.6869 22.0107C11.3709 22.6349 12.2846 22.5228 12.7992 22.0116L13.9111 20.9381C17.5181 17.3424 21.1318 13.7534 24.7341 10.1531L24.7545 10.1258C24.8755 9.99773 24.9888 9.85505 25.0915 9.69964C25.1991 9.53685 25.2908 9.36711 25.3635 9.19276C25.4361 9.01866 25.494 8.83124 25.5344 8.63235C25.5738 8.43823 25.5948 8.24495 25.5948 8.05535C25.5948 7.64927 25.5126 7.25902 25.3639 6.9006C25.2087 6.52677 24.984 6.19282 24.707 5.91643C24.4301 5.64004 24.0956 5.41567 23.7211 5.26084C23.3619 5.11247 22.971 5.03045 22.5641 5.03045C21.9936 5.03045 21.5327 5.17196 21.0751 5.40704C20.5848 5.67296 19.8646 5.94081 19.2684 6.12907C18.0019 6.52895 16.7385 6.73295 15.3344 6.73295C14.6536 6.73295 13.4321 6.65085 12.2537 6.37136C11.2004 6.12144 10.1243 5.66098 9.51998 5.39054C9.24415 5.15947 8.57161 5.03045 8.07081 5.03045C7.66345 5.03045 7.27245 5.11281 6.91418 5.26177C6.54459 5.4155 6.21042 5.64163 5.92946 5.9223C5.65044 6.20112 5.42573 6.53331 5.27279 6.90127C5.12413 7.25902 5.04195 7.64902 5.04195 8.05535C5.04195 8.24553 5.06117 8.43714 5.09802 8.62708C5.13412 8.81298 5.18952 8.99881 5.26246 9.1812C5.33709 9.36761 5.42799 9.54313 5.53334 9.70425V9.70642C5.63852 9.86711 5.76175 10.0189 5.9016 10.1589L8.453 12.6964L10.0736 14.3081C10.439 14.6715 10.2545 14.4681 10.6348 14.8475C10.8523 15.1044 11.2324 15.2964 11.6796 15.2934C12.0124 15.2912 12.3989 15.19 12.6949 14.8774C12.9184 14.7163 13.1104 14.3062 13.1244 13.8703C13.1359 13.5125 13.0315 13.1402 12.6967 12.8463L11.8212 11.9737C10.9216 11.0716 9.55423 9.70458 8.65455 8.80259C8.55667 8.7044 8.0866 8.23665 7.98863 8.13846C7.94498 8.09599 7.93164 8.01153 7.97243 7.95984C8.00215 7.92231 8.07081 7.8955 8.15988 7.92767C8.32146 8.00827 8.62264 8.14969 8.88404 8.26765C9.71733 8.64375 10.5252 8.89291 11.4083 9.1347C11.792 9.23817 12.5166 9.3718 12.9586 9.4436C13.0276 9.45877 13.5618 9.53249 14.1037 9.57136C14.6639 9.61167 15.2329 9.61728 15.3241 9.61728C17.8698 9.61728 20.2349 9.0386 22.4991 7.92222C22.5681 7.89776 22.6305 7.91762 22.6668 7.9554C22.7075 7.99779 22.7158 8.06298 22.6646 8.11442C22.6361 8.14852 22.5978 8.16929 22.4999 8.27704L11.76 18.9671C9.28417 16.5 6.80731 14.0717 4.33238 11.6C4.107 11.3634 3.90352 11.1051 3.72573 10.829C3.54828 10.5534 3.39819 10.2647 3.27899 9.96681C3.16156 9.67333 3.07031 9.36225 3.00845 9.03701C2.9491 8.7251 2.91805 8.39701 2.91805 8.05535C2.91805 7.35511 3.05638 6.69023 3.30686 6.0865C3.56641 5.46099 3.94977 4.89514 4.42715 4.41868C4.90453 3.94222 5.47147 3.55959 6.09817 3.30054C6.70306 3.05054 7.3693 2.91247 8.0708 2.91247C8.25555 2.91247 8.42109 2.91942 8.56748 2.93275C8.72462 2.94707 8.88378 2.96978 9.04402 3.00019C9.20267 3.03018 9.35712 3.0673 9.50679 3.11095C9.64899 3.15233 9.80327 3.2062 9.96838 3.27139L10.0586 3.30691L10.1819 3.36195L10.1813 3.36329C10.2642 3.40183 10.3478 3.43954 10.4322 3.4764L10.6 3.55314L10.6029 3.54937C10.8634 3.65845 11.1307 3.75958 11.4043 3.85216C11.6473 3.9697 11.942 4.07376 12.2632 4.16399C12.6539 4.27374 13.0851 4.38131 13.5088 4.44985C14.1946 4.56086 14.8631 4.59939 15.3241 4.59939C16.3177 4.59939 17.3152 4.42144 17.9263 4.28882C18.3414 4.18033 18.7696 4.07132 19.1678 3.90686C19.496 3.79736 20.1281 3.49383 20.4588 3.32986C21.0412 3.06495 21.7687 2.87829 22.5776 2.87829C23.8991 2.87829 25.2992 3.45604 26.2292 4.38424C26.9712 5.12487 27.484 6.06875 27.6815 7.19358C27.7946 7.83845 27.7718 8.60487 27.5964 9.29933C27.4443 9.9018 27.1768 10.467 26.8622 10.9363C26.674 11.2171 26.4514 11.454 26.2109 11.6944C21.7265 16.1662 18.5278 19.3327 14.2384 23.6102C13.5244 24.2868 13.9818 25.3787 14.2443 25.5484C14.938 26.2812 15.9657 26.0063 16.3882 25.5402L28.2735 13.7427Z" fill="url(#paint0_linear_893_12044)"/>
<path fill-rule="evenodd" clip-rule="evenodd" d="M51.6417 6.39142H50.2138H45.2195V6.38647L43.7794 6.39142C42.9904 6.39142 42.3508 7.02979 42.3508 7.81723V7.83685V7.83705V15.0218C42.3508 15.8802 41.7379 16.5862 40.932 16.7531L40.9256 16.7545L40.9257 16.7697C40.4085 16.9841 40.0447 17.4931 40.0447 18.0869L40.0447 18.091V19.3729L40.0447 19.377L40.0447 19.3811V19.4003C40.0572 20.177 40.6918 20.8028 41.473 20.8028C42.1843 20.8028 42.774 20.284 42.8833 19.6047H50.2134H51.6687C51.7779 20.284 52.3677 20.8028 53.079 20.8028C53.868 20.8028 54.5076 20.1645 54.5076 19.377V18.1789V18.0869H54.5045C54.457 17.3424 53.8371 16.7531 53.0791 16.7531L53.0706 16.7533V16.7531V9.24314V7.81722C53.0706 7.02979 52.431 6.39142 51.6421 6.39142H51.6414L51.6417 6.39142ZM60.7538 18.1787V18.1788C60.7538 18.9663 60.1142 19.6046 59.3252 19.6046C58.5362 19.6046 57.8966 18.9663 57.8966 18.1788L57.8966 18.1772V7.82458V7.82456V7.81737C57.8966 7.02987 58.5362 6.39154 59.3252 6.39154V6.39152H59.9004H60.7538H65.2212C67.8429 6.39152 69.9875 8.43314 69.9875 11.0502C69.9875 13.6672 67.8428 15.5991 65.2212 15.5991H60.7538V18.1787H60.7538ZM60.7538 9.24307C60.7538 10.4112 60.7538 11.5793 60.7538 12.7474H65.3022C66.3001 12.7474 67.1162 12.0123 67.1162 11.0163C67.1162 10.0203 66.2988 9.24317 65.3022 9.24317L60.7538 9.2431V9.24307ZM82.1543 6.89569L82.1536 6.89655C82.0995 6.96029 82.0509 7.02878 82.0086 7.10137L78.5332 12.0121L75.012 7.03216V7.03222C74.7564 6.6462 74.3178 6.39154 73.8195 6.39154C73.0305 6.39154 72.3909 7.02987 72.3909 7.81737C72.3909 8.15074 72.5056 8.45736 72.6976 8.70017L72.6976 8.70018L76.7854 14.4864L74.7224 17.4065L74.7249 17.4083C74.5817 17.6305 74.4985 17.8949 74.4985 18.1788C74.4985 18.9663 75.1381 19.6046 75.9271 19.6046C76.3832 19.6046 76.7894 19.3913 77.0509 19.0591C77.0812 19.0205 77.1096 18.9804 77.1359 18.9387L84.4426 8.59619L84.4416 8.59543C84.5878 8.3717 84.6729 8.10446 84.6729 7.81737C84.6729 7.02987 84.0333 6.39154 83.2443 6.39154C82.8074 6.39154 82.4164 6.58734 82.1544 6.89575V6.89569H82.1543ZM95.589 6.39142H90.428H88.9995H88.9898L88.9897 6.39156C88.2052 6.39682 87.571 7.03302 87.5709 7.81721L87.5709 7.81725L87.5709 7.82132L87.5709 9.24311L87.569 18.2519H87.5727C87.6107 19.0055 88.235 19.6048 88.9994 19.6048C89.7884 19.6048 90.428 18.9664 90.428 18.1789C90.428 18.1545 90.4273 18.1304 90.4262 18.1063L90.428 9.24311H95.5632L95.5714 9.24318L95.5796 9.24311H95.589V9.24304C96.3699 9.23359 96.9999 8.59904 96.9999 7.81739C96.9999 7.0358 96.3699 6.40123 95.589 6.3918V6.39146L95.589 6.39142ZM44.8956 16.7531C45.1062 16.2347 45.2222 15.6637 45.2222 15.0558L45.2215 15.0218H45.2194V9.24315H50.2136V16.7531H44.8954H44.8956Z" fill="#8C50A6"/>
<defs>
<linearGradient id="paint0_linear_893_12044" x1="30.6512" y1="2.84441" x2="13.2591" y2="17.3778" gradientUnits="userSpaceOnUse">
<stop stop-color="#9931CC"/>
<stop offset="1" stop-color="#50DE97"/>
</linearGradient>
</defs>
</svg>
