<svg width="24" height="24" viewBox="0 0 24 24" fill="none" xmlns="http://www.w3.org/2000/svg">
<path d="M20 6C20 3.79086 18.2091 2 16 2L12 2L9.93675 2C9.34319 2 8.7803 2.26365 8.40031 2.71963L4.46356 7.44373C4.16403 7.80316 4 8.25623 4 8.7241L4 12L4 18C4 20.2091 5.79086 22 8 22L16 22C18.2091 22 20 20.2091 20 18L20 6Z" stroke="#AA9DAF" stroke-width="1.5"/>
<path d="M9 2.5L9 6C9 7.10457 8.10457 8 7 8L4.5 8" stroke="#AA9DAF" stroke-width="1.5" stroke-linecap="round"/>
<path d="M16 12L8 12" stroke="#AA9DAF" stroke-width="1.5" stroke-linecap="round"/>
<path d="M16 17L12 17" stroke="#AA9DAF" stroke-width="1.5" stroke-linecap="round"/>
</svg>
